<?xml version="1.0" standalone="no"?>
<!DOCTYPE svg PUBLIC "-//W3C//DTD SVG 20010904//EN"
 "http://www.w3.org/TR/2001/REC-SVG-20010904/DTD/svg10.dtd">
<svg version="1.0" xmlns="http://www.w3.org/2000/svg"
 width="500.000000pt" height="500.000000pt" viewBox="0 0 500.000000 500.000000"
 preserveAspectRatio="xMidYMid meet">

<g transform="translate(0.000000,500.000000) scale(0.100000,-0.100000)"
fill="#000000" stroke="none">
<path d="M1350 3454 c-382 -49 -637 -233 -749 -540 -48 -131 -65 -261 -58
-448 12 -325 112 -545 320 -702 156 -117 337 -172 592 -181 242 -9 408 22 580
107 55 27 122 68 150 90 27 23 50 38 52 33 1 -4 12 -52 24 -105 l21 -98 377 0
376 0 54 258 c29 141 57 260 60 265 4 4 29 -95 55 -220 26 -126 52 -245 57
-265 l10 -38 374 0 375 0 5 23 c3 12 99 421 213 910 l208 887 -376 0 -376 0
-39 -207 c-21 -115 -41 -214 -45 -221 -3 -7 -26 81 -50 195 -23 114 -45 214
-48 221 -3 9 -83 12 -351 12 l-347 0 -43 -222 c-30 -148 -47 -215 -52 -201 -4
11 -24 103 -44 204 -20 101 -39 192 -41 202 -5 16 -31 17 -417 17 -251 0 -428
4 -452 10 -42 11 -356 21 -415 14z m305 -114 c127 -13 236 -44 335 -92 106
-53 238 -178 288 -275 92 -175 123 -401 87 -633 -53 -348 -254 -553 -620 -632
-37 -8 -128 -12 -235 -12 -142 0 -193 5 -270 22 -120 27 -274 103 -352 172
-187 167 -274 480 -223 810 48 318 222 519 522 605 144 41 300 53 468 35z
m885 -28 c0 -13 180 -896 184 -899 2 -2 42 194 90 434 48 241 89 446 92 456 5
16 26 17 259 17 l253 0 6 -27 c64 -311 187 -878 191 -881 3 -3 5 0 5 5 0 11
155 837 165 881 l5 22 255 0 c140 0 255 -4 255 -8 0 -6 -299 -1289 -365 -1569
l-5 -23 -284 0 -284 0 -9 43 c-160 751 -199 925 -204 919 -3 -4 -47 -205 -98
-447 -51 -242 -97 -457 -102 -477 l-10 -38 -283 0 -283 0 -23 102 c-22 99 -23
103 -5 132 104 175 145 336 145 566 0 352 -116 609 -345 766 l-50 34 223 0
c122 0 222 -4 222 -8z"/>
<path d="M1415 2951 c-94 -26 -159 -82 -201 -174 -27 -59 -29 -71 -32 -228 -5
-194 8 -265 63 -344 60 -87 141 -125 270 -125 111 0 168 22 235 88 86 86 95
122 95 357 0 187 0 191 -28 251 -56 121 -144 176 -287 180 -47 2 -98 -1 -115
-5z m209 -125 c87 -36 121 -141 114 -345 -4 -113 -8 -136 -29 -178 -48 -92
-150 -132 -267 -103 -59 14 -111 63 -133 126 -19 52 -19 322 -1 382 17 55 66
109 117 128 47 17 146 12 199 -10z"/>
</g>
</svg>
